Coordinates
version=1
nRows=12
nColumns=33
inDegrees=yes

Units are S.I. units (second, meters, Newtons, ...)
Angles are in degrees.

endheader
time	ground_thorax_rot_x	ground_thorax_rot_y	ground_thorax_rot_z	ground_thorax_tx	ground_thorax_ty	ground_thorax_tz	clav_prot_r	clav_elev_r	scapula_abduction_r	scapula_elevation_r	scapula_upward_rot_r	scapula_winging_r	shoulder_elv_r	plane_of_elev_r	axial_rot_r	elbow_flexion_r	pro_sup_r	wrist_flex_r	wrist_dev_r	clav_prot_l	clav_elev_l	scapula_abduction_l	scapula_elevation_l	scapula_upward_rot_l	scapula_winging_l	shoulder_elv_l	plane_of_elev_l	axial_rot_l	elbow_flexion_l	pro_sup_l	wrist_flex_l	wrist_dev_l
      7.68000000	    -40.06727005	    -14.93139384	     12.72697233	   -127.39830663	    792.92445214	     -1.73046098	      8.25884188	    -45.00000000	     32.63697926	    -45.00000000	    -43.36100480	  -3691.53321789	   -114.06718869	    151.15390095	    -95.17632033	   1809.76022356	     20.41768863	     17.42359134	     10.27608409	     17.59555152	     39.86017606	    -39.14552625	    -45.00000000	    -45.00000000	   2598.76305775	  -3700.27969447	    137.43888679	    173.47291705	   1085.15041130	     17.77621245	     12.19166974	    -19.05056776
      7.69000000	    -40.16748452	    -14.94771250	     12.73622785	   -132.84349604	    793.29328992	     -2.07729053	      8.12083028	    -45.00000000	     32.20183197	    -45.00000000	    -44.79613472	  -3691.58318152	   -113.73907188	    151.05963414	    -95.77627928	   1809.76128000	     20.20443616	     17.44847894	     10.47133994	     17.22122909	     39.85868344	    -38.79983573	    -45.00000000	    -45.00000000	   2599.17433191	  -3700.39595662	    137.56428162	    172.51450159	   1085.15185722	     17.93923210	     12.01625456	    -19.02937338
      7.70000000	    -40.11009648	    -15.03256756	     12.89325976	   -138.30271477	    793.76459700	     -2.43266265	      8.44076603	    -45.00000000	     32.14340224	    -45.00000000	    -45.00000000	  -3692.28582635	   -113.79046611	    151.16692084	    -93.91481457	   1809.82461334	     20.51070244	     17.44823659	     10.25783313	     17.39834240	     39.68825451	    -38.43365643	    -45.00000000	    -45.00000000	   2599.08248982	  -3700.56931746	    138.12994108	    171.56673819	   1085.12820322	     18.36667680	     12.15905328	    -19.06779228
      7.71000000	    -40.08398636	    -14.97792145	     12.87346115	   -143.76013320	    794.34577013	     -2.80116556	      8.56600546	    -45.00000000	     32.19866003	    -45.00000000	    -45.00000000	  -3693.12076506	   -113.96375459	    151.17861833	    -92.97671801	   1809.84021855	     20.86640148	     17.49074150	     10.43116673	     17.50553503	     39.51483088	    -38.22683988	    -45.00000000	    -45.00000000	   2599.41499897	  -3700.92937286	    138.27933905	    170.58741181	   1085.05236681	     18.76734841	     11.69843072	    -18.95219570
      7.72000000	    -40.19394520	    -14.60660691	     12.39902007	   -149.19831866	    795.05408956	     -3.17822601	      8.45644688	    -45.00000000	     32.01214135	    -45.00000000	    -45.00000000	  -3692.95218844	   -113.69842369	    151.62521225	    -93.33865828	   1809.87064847	     21.05511173	     17.54717243	     10.43096259	     17.01935652	     39.65829648	    -37.87499881	    -45.00000000	    -45.00000000	   2599.56768633	  -3700.71340235	    138.46125632	    169.40374393	   1085.38260601	     19.13509936	     12.02821787	    -19.20150215
      7.73000000	    -40.18369815	    -14.53296216	     12.36976435	   -154.60485605	    795.90070105	     -3.55641314	      8.52048146	    -45.00000000	     31.96715913	    -45.00000000	    -45.00000000	  -3693.57877715	   -113.77826781	    151.74840178	    -92.23917610	   1809.93615070	     21.59033969	     17.59589556	     10.43310724	     17.13804852	     39.55278950	    -37.60539419	    -45.00000000	    -45.00000000	   2599.71083630	  -3700.92995152	    138.78029443	    168.49878678	   1085.38909669	     19.57925039	     11.71506209	    -19.15835236
      7.74000000	    -40.24228442	    -14.30615916	     12.12995635	   -159.96550282	    796.90757633	     -3.92340450	      8.51267476	    -45.00000000	     31.86583437	    -45.00000000	    -45.00000000	  -3693.90089226	   -113.71317146	    151.94950473	    -91.78930991	   1810.00173322	     22.10458732	     17.65826558	     10.41922292	     16.97340921	     39.53138634	    -37.33497727	    -45.00000000	    -45.00000000	   2599.91622677	  -3700.99163903	    138.97775567	    167.48497277	   1085.53928589	     20.04484748	     11.71913464	    -19.27860999
      7.75000000	    -40.30065293	    -14.08438505	     11.90426063	   -165.25814130	    798.07191061	     -4.27484826	      8.49108915	    -45.00000000	     31.74880107	    -45.00000000	    -45.00000000	  -3694.23897916	   -113.64639946	    152.13533433	    -91.26859057	   1810.07764965	     22.68885849	     17.71794681	     10.36385790	     16.80689426	     39.51506519	    -37.08344070	    -45.00000000	    -45.00000000	   2600.11097948	  -3701.06514284	    139.19188402	    166.56906203	   1085.67922531	     20.52645023	     11.71089933	    -19.40621743
      7.76000000	    -40.36767458	    -13.87387107	     11.69144355	   -170.45854684	    799.38516084	     -4.60932278	      8.48937030	    -45.00000000	     31.62200348	    -45.00000000	    -45.00000000	  -3694.56865084	   -113.59781958	    152.32171200	    -90.72880240	   1810.16163651	     23.32664208	     17.77891348	     10.28895636	     16.64440756	     39.54076471	    -36.81535018	    -45.00000000	    -45.00000000	   2600.32122325	  -3701.10582051	    139.37449450	    165.63976745	   1085.81720474	     21.04331722	     11.68682971	    -19.54205790
      7.77000000	    -40.39480976	    -13.70086845	     11.53036013	   -175.54566249	    800.84067153	     -4.92388140	      8.51516418	    -45.00000000	     31.62730447	    -45.00000000	    -45.00000000	  -3695.06868688	   -113.54575932	    152.40583921	    -90.12159475	   1810.33856728	     23.99872761	     17.87428266	     10.22943657	     16.44777278	     39.35372869	    -36.53060336	    -45.00000000	    -45.00000000	   2600.49579697	  -3701.18389560	    139.54468708	    164.87444879	   1085.94862357	     21.54542711	     11.77438670	    -19.73057677
      7.78000000	    -40.45724568	    -13.52307042	     11.34486858	   -180.49869308	    802.43158645	     -5.21390459	      8.57503061	    -45.00000000	     31.59580478	    -45.00000000	    -45.00000000	  -3695.45401830	   -113.53453710	    152.54831647	    -89.64642922	   1810.43852493	     24.69140696	     17.94760583	     10.16918494	     16.26592925	     39.25261638	    -36.23541900	    -45.00000000	    -45.00000000	   2600.66987327	  -3701.18926557	    139.74088996	    164.07076701	   1086.12000089	     22.11877854	     11.75821540	    -19.91010227
      7.79000000	    -40.53829182	    -13.31748544	     11.11884234	   -185.30030117	    804.15248400	     -5.47512401	      8.61333750	    -45.00000000	     31.52982440	    -45.00000000	    -45.00000000	  -3695.76760126	   -113.51490966	    152.70321286	    -89.17732566	   1810.50021906	     25.38508647	     17.99749001	     10.04981153	     16.04379675	     39.30148584	    -35.94341793	    -45.00000000	    -45.00000000	   2600.87182060	  -3701.14459087	    139.89821799	    163.12855667	   1086.34916136	     22.77500651	     11.68607873	    -20.09135548
